<?xml version="1.0" standalone="no"?>
<!DOCTYPE svg PUBLIC "-//W3C//DTD SVG 20010904//EN"
 "http://www.w3.org/TR/2001/REC-SVG-20010904/DTD/svg10.dtd">
<svg version="1.0" xmlns="http://www.w3.org/2000/svg"
 width="659.000000pt" height="379.000000pt" viewBox="0 0 659.000000 379.000000"
 preserveAspectRatio="xMidYMid meet">

<g transform="translate(0.000000,379.000000) scale(0.100000,-0.100000)"
fill="#000000" stroke="none">
<path d="M276 3482 c-21 -78 -22 -271 -1 -316 21 -44 121 -140 235 -226 142
-107 507 -280 591 -280 31 0 22 -30 -13 -45 -28 -11 -62 -10 -233 6 -110 10
-240 28 -290 39 -152 35 -139 36 -131 0 3 -17 34 -73 68 -123 57 -84 69 -95
128 -124 124 -62 284 -72 808 -52 33 1 39 -8 22 -38 -25 -44 -263 -130 -423
-154 -132 -19 -142 -22 -145 -45 -2 -17 21 -42 110 -113 124 -100 161 -116
249 -108 60 5 216 55 291 93 61 31 88 31 88 1 0 -31 -19 -57 -122 -165 -48
-51 -88 -96 -88 -101 0 -15 35 -38 139 -95 122 -66 158 -70 240 -30 29 15 79
51 111 80 31 30 68 55 81 56 23 3 24 1 22 -54 -2 -65 -33 -145 -69 -179 -28
-27 -31 -50 -6 -71 9 -9 85 -55 167 -103 258 -150 578 -357 740 -479 94 -70
235 -189 356 -298 47 -43 92 -78 99 -78 7 0 49 35 94 78 174 166 319 279 551
429 244 158 509 329 615 396 50 31 93 64 97 73 3 8 -13 54 -35 102 -22 48 -43
97 -47 110 -7 23 11 82 24 82 3 0 41 -29 84 -65 155 -129 188 -133 364 -43 67
35 125 69 128 76 3 8 -32 52 -83 105 -109 114 -135 151 -127 177 9 29 30 25
130 -25 68 -34 113 -49 184 -61 109 -18 153 -13 213 25 54 35 208 169 208 181
0 17 -44 33 -144 51 -141 26 -206 45 -315 93 -102 45 -125 66 -101 90 13 14
31 13 155 0 151 -17 291 -13 495 11 143 18 182 29 223 64 28 25 147 204 163
244 8 22 -23 28 -60 13 -133 -55 -602 -102 -635 -62 -15 17 1 31 49 41 104 22
345 134 483 224 94 62 247 190 289 243 l33 42 -1 136 c0 140 -16 212 -45 218
-16 2 -74 -51 -136 -125 -117 -141 -476 -382 -740 -498 -155 -68 -454 -164
-702 -225 -240 -59 -271 -76 -292 -152 -17 -63 -148 -305 -211 -389 -71 -94
-228 -247 -305 -296 -33 -21 -103 -58 -156 -82 -113 -51 -120 -49 -137 37 -6
31 -15 83 -22 115 -10 53 -9 60 8 77 10 10 57 28 103 39 46 11 87 25 91 32 12
19 0 48 -32 74 -23 20 -41 25 -83 25 -67 0 -98 12 -146 55 -21 19 -49 37 -62
40 -13 4 -103 5 -200 3 -161 -3 -178 -5 -197 -23 -20 -20 -41 -97 -95 -340
-28 -125 -43 -155 -81 -155 -37 0 -199 87 -277 149 -184 146 -385 438 -457
663 -17 54 -47 73 -152 93 -229 44 -611 166 -837 268 -152 69 -390 211 -536
320 -60 45 -161 132 -223 194 -63 62 -115 113 -117 113 -1 0 -10 -26 -19 -58z
m3105 -1322 c52 -10 99 -41 99 -66 0 -22 -41 -36 -105 -36 -99 0 -178 49 -137
84 33 30 62 33 143 18z"/>
<path d="M2770 2874 c-218 -64 -408 -198 -459 -326 l-23 -56 27 -87 c14 -47
32 -88 40 -91 9 -4 43 20 87 60 145 132 279 211 493 287 133 47 145 54 145 79
0 26 -98 130 -137 147 -44 18 -74 16 -173 -13z"/>
<path d="M3694 2860 c-54 -30 -94 -84 -94 -125 0 -25 -3 -24 180 -85 151 -50
285 -131 409 -245 81 -76 91 -74 141 28 22 46 40 90 40 98 0 18 -43 83 -84
128 -102 109 -354 231 -479 231 -50 0 -72 -6 -113 -30z"/>
<path d="M3225 2579 c-196 -19 -351 -76 -528 -194 -100 -66 -211 -165 -232
-206 -19 -35 -7 -71 31 -95 l26 -18 77 81 c98 101 175 158 294 217 163 80 350
109 562 87 219 -22 337 -73 529 -226 65 -52 122 -95 127 -95 5 0 23 13 41 29
29 26 31 31 21 54 -17 37 -147 144 -244 202 -243 144 -439 189 -704 164z"/>
<path d="M4385 1216 c-46 -20 -64 -47 -99 -143 -59 -163 -217 -363 -365 -463
-131 -88 -287 -145 -493 -179 l-126 -22 -154 37 c-125 30 -174 47 -268 95
-214 109 -338 231 -455 450 -60 112 -101 159 -158 178 l-29 11 7 -52 c8 -59
49 -160 101 -248 149 -254 426 -466 699 -535 193 -49 441 -44 619 12 203 64
450 234 573 395 98 128 203 360 203 448 0 33 -10 36 -55 16z"/>
</g>
</svg>
